<svg width="170" height="30" viewBox="0 0 170 30" fill="none" xmlns="http://www.w3.org/2000/svg">
<path d="M46.6434 22C50.632 22 53.1633 19.5455 53.1633 15.4545C53.1633 11.3636 50.632 8.90909 46.5922 8.90909H41.6064V22H46.6434ZM45.1604 18.983V11.9261H46.4133C48.4587 11.9261 49.5837 12.7188 49.5837 15.4545C49.5837 18.1903 48.4587 18.983 46.5155 18.983H45.1604ZM57.5945 22.1534C58.873 22.1534 59.8382 21.7188 60.4326 20.6193H60.5093V22H63.8076V15.2756C63.8076 13.4602 62.0882 12.054 59.282 12.054C56.3481 12.054 54.9035 13.5881 54.782 15.3778H58.0292C58.1123 14.7706 58.5597 14.483 59.2309 14.483C59.8445 14.483 60.2792 14.7642 60.2792 15.2756V15.3011C60.2792 15.87 59.6528 16.049 58.0036 16.1705C55.9774 16.3175 54.3985 17.1357 54.3985 19.2898C54.3985 21.2457 55.7153 22.1534 57.5945 22.1534ZM58.7451 19.929C58.1443 19.929 57.7224 19.6349 57.7224 19.0852C57.7224 18.5803 58.0803 18.1903 58.8985 18.0625C59.461 17.973 59.934 17.858 60.3048 17.7045V18.5227C60.3048 19.4176 59.5441 19.929 58.7451 19.929ZM74.468 15.3778C74.3785 13.3004 72.6526 12.054 69.8145 12.054C67.0084 12.054 65.2762 13.2045 65.289 15.25C65.2762 16.7969 66.2797 17.7876 68.2805 18.1392L70.0191 18.446C70.7861 18.5866 71.1313 18.7912 71.1441 19.1619C71.1313 19.571 70.6647 19.8011 70.0191 19.8011C69.2201 19.8011 68.6576 19.456 68.5617 18.8295H65.0589C65.2506 20.843 66.9893 22.179 69.9935 22.179C72.7101 22.179 74.7108 20.8558 74.7236 18.7528C74.7108 17.3018 73.7393 16.4581 71.7322 16.0938L69.7378 15.7358C68.99 15.6016 68.779 15.3331 68.7918 15.0455C68.779 14.6364 69.284 14.4062 69.8912 14.4062C70.588 14.4062 71.1697 14.777 71.2208 15.3778H74.468ZM79.604 16.4773C79.6104 15.5057 80.1729 14.9176 81.0358 14.9176C81.9371 14.9176 82.4484 15.5057 82.442 16.4773V22H85.9704V15.7358C85.9768 13.5881 84.6217 12.054 82.5443 12.054C81.0933 12.054 80.0194 12.7955 79.5784 14.0483H79.4761V8.90909H76.0756V22H79.604V16.4773ZM87.6611 22H91.164V20.3892H91.2407C91.6498 21.3864 92.5958 22.1278 93.9765 22.1278C96.0731 22.1278 97.8373 20.4915 97.8373 17.0909C97.8373 13.5369 95.9452 12.054 94.002 12.054C92.5447 12.054 91.6242 12.8977 91.2407 13.8949H91.1895V8.90909H87.6611V22ZM91.1128 17.0909C91.1128 15.6335 91.7009 14.7642 92.6725 14.7642C93.6441 14.7642 94.2066 15.6335 94.2066 17.0909C94.2066 18.5483 93.6441 19.4176 92.6725 19.4176C91.7009 19.4176 91.1128 18.5227 91.1128 17.0909ZM104.044 22.179C107.24 22.179 109.132 20.1335 109.132 17.1165C109.132 14.0994 107.24 12.054 104.044 12.054C100.848 12.054 98.9559 14.0994 98.9559 17.1165C98.9559 20.1335 100.848 22.179 104.044 22.179ZM104.07 19.571C103.123 19.571 102.561 18.6314 102.561 17.0909C102.561 15.5504 103.123 14.6108 104.07 14.6108C104.964 14.6108 105.527 15.5504 105.527 17.0909C105.527 18.6314 104.964 19.571 104.07 19.571ZM113.3 22.1534C114.578 22.1534 115.543 21.7188 116.138 20.6193H116.214V22H119.513V15.2756C119.513 13.4602 117.793 12.054 114.987 12.054C112.053 12.054 110.609 13.5881 110.487 15.3778H113.734C113.817 14.7706 114.265 14.483 114.936 14.483C115.55 14.483 115.984 14.7642 115.984 15.2756V15.3011C115.984 15.87 115.358 16.049 113.709 16.1705C111.682 16.3175 110.104 17.1357 110.104 19.2898C110.104 21.2457 111.42 22.1534 113.3 22.1534ZM114.45 19.929C113.849 19.929 113.427 19.6349 113.427 19.0852C113.427 18.5803 113.785 18.1903 114.604 18.0625C115.166 17.973 115.639 17.858 116.01 17.7045V18.5227C116.01 19.4176 115.249 19.929 114.45 19.929ZM121.199 22H124.727V16.8864C124.727 15.7614 125.5 15.0199 126.542 15.0199C126.907 15.0199 127.495 15.0774 127.846 15.1989V12.1882C127.565 12.1051 127.258 12.054 126.951 12.054C125.903 12.054 125.085 12.6676 124.727 14.0483H124.625V12.1818H121.199V22ZM131.995 22.1278C133.375 22.1278 134.321 21.3864 134.731 20.3892H134.807V22H138.31V8.90909H134.782V13.8949H134.731C134.347 12.8977 133.427 12.054 131.969 12.054C130.026 12.054 128.134 13.5369 128.134 17.0909C128.134 20.4915 129.898 22.1278 131.995 22.1278ZM133.299 19.4176C132.327 19.4176 131.765 18.5483 131.765 17.0909C131.765 15.6335 132.327 14.7642 133.299 14.7642C134.27 14.7642 134.858 15.6335 134.858 17.0909C134.858 18.5227 134.27 19.4176 133.299 19.4176ZM139.991 22H143.545V18.625L144.721 17.0909L147.662 22H151.906L147.38 14.7386L151.804 8.90909H147.662L143.724 14.2017H143.545V8.90909H139.991V22ZM153.525 22H157.053V12.1818H153.525V22ZM155.289 11.1591C156.248 11.1591 157.028 10.4368 157.028 9.5483C157.028 8.6598 156.248 7.9375 155.289 7.9375C154.33 7.9375 153.55 8.6598 153.55 9.5483C153.55 10.4368 154.33 11.1591 155.289 11.1591ZM164.706 12.1818H163.019V9.82955H159.49V12.1818H158.237V14.7386H159.49V19.1747C159.465 21.233 160.737 22.2749 163.172 22.1406C163.971 22.0959 164.565 21.9297 164.885 21.8338L164.374 19.3537C164.239 19.3857 163.894 19.456 163.683 19.456C163.223 19.456 163.019 19.2514 163.019 18.8423V14.7386H164.706V12.1818Z" fill="#2F2F2F"/>
<path d="M18.1953 1.31886L15.6872 8.77236C15.623 8.96304 15.4064 9.12149 15.1189 9.1156C14.0812 9.09437 13.0244 9.34757 12.0609 9.90382C9.24784 11.528 8.28251 15.1238 9.90587 17.9356C11.5292 20.7474 15.126 21.7093 17.9391 20.0851C20.2204 18.768 21.2856 16.1551 20.7425 13.7153C20.6798 13.4334 20.7926 13.189 20.9668 13.0884L27.7803 9.15456C28.0054 9.02463 28.261 9.12204 28.3456 9.32045C31.1796 15.9659 28.6639 23.8361 22.2445 27.5425C15.3088 31.5469 6.4432 29.1745 2.44235 22.2448C-1.5585 15.315 0.819815 6.4509 7.75553 2.4465C10.9559 0.598718 14.5661 0.108697 17.921 0.797559C18.132 0.840887 18.2784 1.07174 18.1953 1.31886Z" stroke="#2F2F2F"/>
<path d="M18.6085 10.959C18.9489 11.2715 19.4521 11.3739 19.8524 11.1429L26.6709 7.20615C27.1368 6.93719 27.2833 6.33018 26.9603 5.90001C25.4757 3.92275 23.5686 2.40037 21.4406 1.38676C20.9551 1.15553 20.3895 1.41924 20.218 1.92888L17.7079 9.38846C17.5605 9.82666 17.7605 10.2999 18.1347 10.5716C18.299 10.6909 18.4572 10.8201 18.6085 10.959Z" fill="#7267EF"/>
</svg>
