<svg width="30" height="30" viewBox="0 0 30 30" fill="none" xmlns="http://www.w3.org/2000/svg">
<path d="M15.6872 8.77236C15.623 8.96304 15.4064 9.12149 15.1189 9.1156C14.0812 9.09437 13.0244 9.34757 12.0609 9.90382C9.24784 11.528 8.28251 15.1238 9.90587 17.9356C11.5292 20.7474 15.126 21.7093 17.9391 20.0851C20.2204 18.768 21.2856 16.1551 20.7425 13.7153C20.6798 13.4334 20.7926 13.189 20.9668 13.0884L27.7803 9.15456C28.0054 9.02463 28.261 9.12204 28.3456 9.32045C31.1796 15.9659 28.6639 23.8361 22.2445 27.5425C15.3088 31.5469 6.4432 29.1745 2.44235 22.2448C-1.5585 15.315 0.819815 6.4509 7.75553 2.4465C10.9559 0.598718 14.5661 0.108697 17.921 0.797559C18.132 0.840887 18.2784 1.07174 18.1953 1.31886L15.6872 8.77236Z" stroke="#2F2F2F"/>
<path d="M18.6085 10.959C18.9489 11.2715 19.4521 11.3739 19.8524 11.1429L26.6709 7.20615C27.1368 6.93719 27.2833 6.33018 26.9603 5.90001C25.4757 3.92275 23.5686 2.40037 21.4406 1.38676C20.9551 1.15553 20.3895 1.41924 20.218 1.92888L17.7079 9.38846C17.5605 9.82666 17.7605 10.2999 18.1347 10.5716C18.299 10.6909 18.4572 10.8201 18.6085 10.959Z" fill="#7267EF"/>
</svg>
